<?xml version="1.0" encoding="UTF-8"?>
<svg xmlns="http://www.w3.org/2000/svg" xmlns:xlink="http://www.w3.org/1999/xlink" width="70pt" height="70pt" viewBox="0 0 70 70" version="1.1">
<g id="surface1">
<rect x="0" y="0" width="70" height="70" style="fill:rgb(94.117647%,85.882353%,30.980392%);fill-opacity:1;stroke:none;"/>
<path style=" stroke:none;fill-rule:nonzero;fill:rgb(19.607843%,20%,18.823529%);fill-opacity:1;" d="M 64.269531 53.304688 C 63.757812 50.109375 61.675781 47.429688 55.507812 44.929688 C 53.363281 43.941406 50.976562 43.238281 50.265625 41.613281 C 50.011719 40.667969 49.976562 40.136719 50.136719 39.566406 C 50.597656 37.707031 52.8125 37.128906 54.570312 37.660156 C 55.699219 38.039062 56.773438 38.914062 57.417969 40.304688 C 60.4375 38.347656 60.429688 38.359375 62.539062 37.015625 C 61.769531 35.820312 61.355469 35.265625 60.851562 34.753906 C 59.035156 32.722656 56.558594 31.679688 52.601562 31.757812 C 51.914062 31.847656 51.222656 31.9375 50.535156 32.027344 C 48.5625 32.523438 46.679688 33.5625 45.574219 34.953125 C 42.257812 38.714844 43.203125 45.292969 47.238281 48.003906 C 51.210938 50.984375 57.042969 51.660156 57.789062 54.449219 C 58.515625 57.863281 55.28125 58.96875 52.066406 58.574219 C 49.699219 58.082031 48.382812 56.878906 46.957031 54.6875 C 44.335938 56.207031 44.335938 56.207031 41.640625 57.757812 C 42.28125 59.152344 42.953125 59.785156 44.023438 60.996094 C 49.09375 66.140625 61.78125 65.886719 64.058594 58.101562 C 64.152344 57.835938 64.761719 56.054688 64.269531 53.304688 Z M 38.054688 32.171875 L 31.507812 32.171875 C 31.507812 37.828125 31.480469 43.445312 31.480469 49.101562 C 31.480469 52.699219 31.667969 56 31.082031 57.011719 C 30.121094 59 27.640625 58.753906 26.507812 58.367188 C 25.359375 57.804688 24.773438 56.996094 24.09375 55.859375 C 23.90625 55.535156 23.769531 55.28125 23.722656 55.261719 C 21.945312 56.347656 20.175781 57.4375 18.398438 58.523438 C 19.285156 60.339844 20.585938 61.914062 22.257812 62.941406 C 24.753906 64.4375 28.105469 64.894531 31.613281 64.089844 C 33.894531 63.425781 35.863281 62.046875 36.894531 59.953125 C 38.386719 57.203125 38.066406 53.878906 38.054688 50.199219 C 38.085938 44.195312 38.054688 38.195312 38.054688 32.171875 Z M 38.054688 32.171875 "/>
</g>
</svg>
