<?xml version="1.0" encoding="UTF-8"?>
<svg xmlns="http://www.w3.org/2000/svg" xmlns:xlink="http://www.w3.org/1999/xlink" width="130pt" height="80pt" viewBox="0 0 130 80" version="1.1">
<defs>
<clipPath id="clip1">
  <path d="M 33.710938 18.261719 L 61.371094 18.261719 L 61.371094 50.433594 L 33.710938 50.433594 Z M 33.710938 18.261719 "/>
</clipPath>
<clipPath id="clip2">
  <path d="M 46.84375 18.492188 L 34.566406 25.679688 C 34.105469 25.949219 33.820312 26.445312 33.820312 26.980469 L 33.820312 41.363281 C 33.820312 41.898438 34.105469 42.394531 34.566406 42.664062 L 46.84375 49.855469 C 47.308594 50.121094 47.867188 50.121094 48.328125 49.855469 L 60.601562 42.664062 C 61.0625 42.394531 61.347656 41.898438 61.347656 41.363281 L 61.347656 26.980469 C 61.347656 26.445312 61.0625 25.949219 60.601562 25.679688 L 48.328125 18.492188 C 48.097656 18.359375 47.835938 18.292969 47.582031 18.292969 C 47.332031 18.292969 47.070312 18.359375 46.839844 18.492188 "/>
</clipPath>
<linearGradient id="linear0" gradientUnits="userSpaceOnUse" x1="-0.348" y1="0" x2="1.251" y2="0" gradientTransform="matrix(-11.093904,22.944261,-22.631477,-11.24723,52.582218,23.819253)">
<stop offset="0.3" style="stop-color:rgb(24.313725%,52.54902%,23.921569%);stop-opacity:1;"/>
<stop offset="0.5" style="stop-color:rgb(33.333333%,57.647059%,30.980392%);stop-opacity:1;"/>
<stop offset="0.8" style="stop-color:rgb(35.294118%,67.843137%,27.058824%);stop-opacity:1;"/>
</linearGradient>
<clipPath id="clip3">
  <path d="M 34 18.261719 L 61 18.261719 L 61 50.433594 L 34 50.433594 Z M 34 18.261719 "/>
</clipPath>
<clipPath id="clip4">
  <path d="M 34.125 42.273438 C 34.242188 42.429688 34.390625 42.5625 34.5625 42.664062 L 45.09375 48.832031 L 46.851562 49.855469 C 47.113281 50.007812 47.410156 50.070312 47.707031 50.050781 C 47.804688 50.039062 47.902344 50.023438 47.996094 49.996094 L 60.949219 25.953125 C 60.851562 25.847656 60.730469 25.753906 60.601562 25.679688 L 52.5625 20.972656 L 48.3125 18.492188 C 48.191406 18.421875 48.058594 18.371094 47.929688 18.335938 Z M 34.125 42.273438 "/>
</clipPath>
<linearGradient id="linear1" gradientUnits="userSpaceOnUse" x1="-0.456" y1="0" x2="0.582" y2="0" gradientTransform="matrix(31.128198,-23.31792,23.000043,31.558414,45.723009,35.86439)">
<stop offset="0.57" style="stop-color:rgb(24.313725%,52.54902%,23.921569%);stop-opacity:1;"/>
<stop offset="0.72" style="stop-color:rgb(38.039216%,59.607843%,34.117647%);stop-opacity:1;"/>
<stop offset="1" style="stop-color:rgb(46.27451%,67.45098%,39.215686%);stop-opacity:1;"/>
</linearGradient>
<clipPath id="clip5">
  <path d="M 34.574219 18.261719 L 61.371094 18.261719 L 61.371094 50.433594 L 34.574219 50.433594 Z M 34.574219 18.261719 "/>
</clipPath>
<clipPath id="clip6">
  <path d="M 47.433594 18.300781 C 47.234375 18.320312 47.03125 18.386719 46.84375 18.492188 L 34.601562 25.660156 L 47.800781 50.039062 C 47.984375 50.011719 48.167969 49.949219 48.328125 49.855469 L 60.605469 42.664062 C 60.988281 42.4375 61.25 42.0625 61.324219 41.632812 L 47.863281 18.324219 C 47.765625 18.304688 47.664062 18.292969 47.5625 18.292969 C 47.523438 18.292969 47.484375 18.296875 47.441406 18.300781 "/>
</clipPath>
<linearGradient id="linear2" gradientUnits="userSpaceOnUse" x1="0.043" y1="0" x2="0.984" y2="0" gradientTransform="matrix(28.391889,0,0,28.784287,33.387154,34.167545)">
<stop offset="0.16" style="stop-color:rgb(41.960784%,74.901961%,27.843137%);stop-opacity:1;"/>
<stop offset="0.38" style="stop-color:rgb(47.45098%,70.588235%,38.039216%);stop-opacity:1;"/>
<stop offset="0.47" style="stop-color:rgb(45.882353%,67.45098%,39.215686%);stop-opacity:1;"/>
<stop offset="0.7" style="stop-color:rgb(39.607843%,61.960784%,35.294118%);stop-opacity:1;"/>
<stop offset="0.9" style="stop-color:rgb(24.313725%,52.54902%,23.921569%);stop-opacity:1;"/>
</linearGradient>
</defs>
<g id="surface1">
<path style=" stroke:none;fill-rule:nonzero;fill:rgb(40.784314%,62.352941%,38.823529%);fill-opacity:1;" d="M 63.726562 80.054688 C 63.296875 80.054688 62.875 79.9375 62.507812 79.722656 L 58.617188 77.386719 C 58.035156 77.058594 58.320312 76.941406 58.511719 76.875 C 59.28125 76.601562 59.441406 76.539062 60.265625 76.0625 C 60.351562 76.011719 60.46875 76.03125 60.554688 76.082031 L 63.542969 77.878906 C 63.652344 77.941406 63.804688 77.941406 63.90625 77.878906 L 75.546875 71.066406 C 75.65625 71.003906 75.722656 70.878906 75.722656 70.746094 L 75.722656 57.125 C 75.722656 56.992188 75.65625 56.867188 75.542969 56.800781 L 63.90625 49.992188 C 63.796875 49.929688 63.660156 49.929688 63.550781 49.992188 L 51.914062 56.800781 C 51.796875 56.867188 51.726562 56.992188 51.726562 57.121094 L 51.726562 70.742188 C 51.726562 70.875 51.796875 71 51.910156 71.058594 L 55.09375 72.929688 C 56.828125 73.808594 57.886719 72.773438 57.886719 71.730469 L 57.886719 58.289062 C 57.886719 58.09375 58.035156 57.949219 58.222656 57.949219 L 59.699219 57.949219 C 59.882812 57.949219 60.03125 58.09375 60.03125 58.289062 L 60.03125 71.738281 C 60.03125 74.078125 58.773438 75.421875 56.585938 75.421875 C 55.914062 75.421875 55.378906 75.421875 53.898438 74.683594 L 50.847656 72.902344 C 50.089844 72.457031 49.625 71.628906 49.625 70.742188 L 49.625 57.121094 C 49.625 56.238281 50.089844 55.410156 50.847656 54.972656 L 62.503906 48.15625 C 63.238281 47.734375 64.214844 47.734375 64.953125 48.15625 L 76.589844 54.976562 C 77.34375 55.414062 77.8125 56.238281 77.8125 57.125 L 77.8125 70.746094 C 77.8125 71.628906 77.34375 72.457031 76.589844 72.902344 L 64.953125 79.714844 C 64.578125 79.933594 64.152344 80.046875 63.726562 80.046875 "/>
<path style=" stroke:none;fill-rule:nonzero;fill:rgb(40.784314%,62.352941%,38.823529%);fill-opacity:1;" d="M 67.324219 70.664062 C 62.226562 70.664062 61.160156 68.292969 61.160156 66.308594 C 61.160156 66.117188 61.308594 65.96875 61.492188 65.96875 L 62.996094 65.96875 C 63.164062 65.96875 63.304688 66.089844 63.332031 66.257812 C 63.5625 67.808594 64.234375 68.59375 67.316406 68.59375 C 69.769531 68.59375 70.8125 68.035156 70.8125 66.710938 C 70.8125 65.953125 70.511719 65.386719 66.699219 65.011719 C 63.515625 64.691406 61.542969 63.980469 61.542969 61.394531 C 61.542969 59.011719 63.527344 57.59375 66.847656 57.59375 C 70.574219 57.59375 72.425781 58.90625 72.652344 61.726562 C 72.664062 61.824219 72.625 61.914062 72.566406 61.988281 C 72.5 62.054688 72.410156 62.097656 72.320312 62.097656 L 70.804688 62.097656 C 70.644531 62.097656 70.507812 61.984375 70.476562 61.832031 C 70.113281 60.195312 69.230469 59.675781 66.839844 59.675781 C 64.160156 59.675781 63.851562 60.621094 63.851562 61.328125 C 63.851562 62.1875 64.214844 62.4375 67.828125 62.925781 C 71.410156 63.40625 73.109375 64.085938 73.109375 66.636719 C 73.109375 69.207031 70.996094 70.679688 67.304688 70.679688 M 81.488281 56.238281 L 81.875 56.238281 C 82.195312 56.238281 82.257812 56.007812 82.257812 55.871094 C 82.257812 55.527344 82.019531 55.527344 81.886719 55.527344 L 81.488281 55.527344 Z M 81.011719 55.117188 L 81.875 55.117188 C 82.171875 55.117188 82.757812 55.117188 82.757812 55.792969 C 82.757812 56.261719 82.457031 56.359375 82.28125 56.417969 C 82.632812 56.445312 82.65625 56.671875 82.703125 56.996094 C 82.722656 57.199219 82.757812 57.554688 82.832031 57.667969 L 82.296875 57.667969 C 82.28125 57.554688 82.199219 56.902344 82.199219 56.867188 C 82.164062 56.722656 82.113281 56.652344 81.933594 56.652344 L 81.496094 56.652344 L 81.496094 57.671875 L 81.011719 57.671875 Z M 79.96875 56.390625 C 79.96875 57.445312 80.8125 58.304688 81.84375 58.304688 C 82.890625 58.304688 83.734375 57.429688 83.734375 56.390625 C 83.734375 55.328125 82.878906 54.488281 81.839844 54.488281 C 80.824219 54.488281 79.96875 55.316406 79.96875 56.386719 M 84.09375 56.394531 C 84.09375 57.644531 83.078125 58.667969 81.847656 58.667969 C 80.625 58.667969 79.605469 57.660156 79.605469 56.394531 C 79.605469 55.105469 80.648438 54.121094 81.847656 54.121094 C 83.054688 54.121094 84.089844 55.109375 84.089844 56.394531 "/>
<path style=" stroke:none;fill-rule:evenodd;fill:rgb(20%,20%,20%);fill-opacity:1;" d="M 27.667969 26.757812 C 27.667969 26.210938 27.382812 25.714844 26.925781 25.441406 L 14.574219 18.242188 C 14.375 18.117188 14.136719 18.054688 13.902344 18.042969 L 13.773438 18.042969 C 13.53125 18.054688 13.300781 18.117188 13.09375 18.242188 L 0.742188 25.441406 C 0.285156 25.714844 0 26.210938 0 26.757812 L 0.0273438 46.152344 C 0.0273438 46.417969 0.164062 46.671875 0.398438 46.804688 C 0.628906 46.945312 0.910156 46.945312 1.136719 46.804688 L 8.476562 42.542969 C 8.941406 42.265625 9.222656 41.769531 9.222656 41.234375 L 9.222656 32.171875 C 9.222656 31.628906 9.5 31.132812 9.96875 30.863281 L 13.09375 29.039062 C 13.320312 28.902344 13.578125 28.835938 13.835938 28.835938 C 14.09375 28.835938 14.355469 28.902344 14.574219 29.039062 L 17.703125 30.863281 C 18.164062 31.132812 18.445312 31.628906 18.445312 32.171875 L 18.445312 41.230469 C 18.445312 41.769531 18.730469 42.265625 19.199219 42.542969 L 26.527344 46.800781 C 26.761719 46.941406 27.046875 46.941406 27.269531 46.800781 C 27.5 46.667969 27.644531 46.417969 27.644531 46.148438 Z M 85.917969 36.855469 C 85.917969 36.988281 85.847656 37.113281 85.730469 37.179688 L 81.492188 39.65625 C 81.382812 39.726562 81.238281 39.726562 81.121094 39.65625 L 76.882812 37.179688 C 76.761719 37.113281 76.691406 36.988281 76.691406 36.855469 L 76.691406 31.890625 C 76.691406 31.757812 76.761719 31.628906 76.878906 31.5625 L 81.113281 29.078125 C 81.234375 29.011719 81.378906 29.011719 81.488281 29.078125 L 85.730469 31.5625 C 85.847656 31.628906 85.917969 31.757812 85.917969 31.890625 Z M 87.0625 0.09375 C 86.832031 -0.0351562 86.550781 -0.03125 86.324219 0.105469 C 86.097656 0.242188 85.957031 0.488281 85.957031 0.757812 L 85.957031 19.960938 C 85.957031 20.152344 85.855469 20.324219 85.695312 20.421875 C 85.53125 20.515625 85.335938 20.515625 85.175781 20.421875 L 82.082031 18.613281 C 81.621094 18.347656 81.054688 18.347656 80.589844 18.613281 L 68.242188 25.839844 C 67.777344 26.109375 67.496094 26.609375 67.496094 27.148438 L 67.496094 41.601562 C 67.496094 42.140625 67.777344 42.640625 68.242188 42.910156 L 80.589844 50.140625 C 81.054688 50.40625 81.621094 50.40625 82.082031 50.140625 L 94.429688 42.90625 C 94.890625 42.636719 95.179688 42.140625 95.179688 41.597656 L 95.179688 5.574219 C 95.179688 5.023438 94.882812 4.519531 94.40625 4.253906 Z M 128.183594 31.757812 C 128.644531 31.492188 128.929688 30.992188 128.929688 30.453125 L 128.929688 26.949219 C 128.929688 26.410156 128.644531 25.914062 128.183594 25.640625 L 115.914062 18.421875 C 115.453125 18.148438 114.882812 18.148438 114.417969 18.421875 L 102.074219 25.644531 C 101.613281 25.917969 101.328125 26.414062 101.328125 26.953125 L 101.328125 41.402344 C 101.328125 41.945312 101.621094 42.449219 102.078125 42.71875 L 114.34375 49.804688 C 114.796875 50.070312 115.355469 50.070312 115.8125 49.816406 L 123.230469 45.636719 C 123.460938 45.503906 123.609375 45.25 123.609375 44.980469 C 123.609375 44.707031 123.46875 44.453125 123.234375 44.320312 L 110.8125 37.09375 C 110.582031 36.960938 110.441406 36.707031 110.441406 36.441406 L 110.441406 31.90625 C 110.441406 31.636719 110.578125 31.386719 110.808594 31.253906 L 114.671875 28.992188 C 114.90625 28.855469 115.191406 28.855469 115.421875 28.992188 L 119.289062 31.253906 C 119.519531 31.386719 119.65625 31.636719 119.65625 31.90625 L 119.65625 35.46875 C 119.65625 35.738281 119.800781 35.988281 120.03125 36.125 C 120.265625 36.257812 120.550781 36.257812 120.78125 36.121094 Z M 128.183594 31.757812 "/>
<path style=" stroke:none;fill-rule:evenodd;fill:rgb(40.784314%,62.352941%,38.823529%);fill-opacity:1;" d="M 114.988281 31.082031 C 115.074219 31.03125 115.1875 31.03125 115.273438 31.082031 L 117.640625 32.46875 C 117.730469 32.519531 117.785156 32.617188 117.785156 32.722656 L 117.785156 35.496094 C 117.785156 35.597656 117.730469 35.691406 117.640625 35.746094 L 115.273438 37.132812 C 115.1875 37.183594 115.074219 37.183594 114.988281 37.132812 L 112.621094 35.746094 C 112.527344 35.691406 112.472656 35.597656 112.472656 35.496094 L 112.472656 32.722656 C 112.472656 32.617188 112.527344 32.519531 112.617188 32.46875 Z M 114.988281 31.082031 "/>
<g clip-path="url(#clip1)" clip-rule="nonzero">
<g clip-path="url(#clip2)" clip-rule="nonzero">
<path style=" stroke:none;fill-rule:nonzero;fill:url(#linear0);" d="M 73.753906 24.460938 L 39.152344 7.265625 L 21.414062 43.953125 L 56.015625 61.148438 Z M 73.753906 24.460938 "/>
</g>
</g>
<g clip-path="url(#clip3)" clip-rule="nonzero">
<g clip-path="url(#clip4)" clip-rule="nonzero">
<path style=" stroke:none;fill-rule:nonzero;fill:url(#linear1);" d="M 19.167969 29.542969 L 43.597656 63.066406 L 75.910156 38.867188 L 51.472656 5.34375 Z M 19.167969 29.542969 "/>
</g>
</g>
<g clip-path="url(#clip5)" clip-rule="nonzero">
<g clip-path="url(#clip6)" clip-rule="nonzero">
<path style=" stroke:none;fill-rule:nonzero;fill:url(#linear2);" d="M 34.601562 18.292969 L 34.601562 50.039062 L 61.320312 50.039062 L 61.320312 18.292969 Z M 34.601562 18.292969 "/>
</g>
</g>
</g>
</svg>
