<?xml version="1.0" encoding="UTF-8"?>
<svg xmlns="http://www.w3.org/2000/svg" xmlns:xlink="http://www.w3.org/1999/xlink" width="70pt" height="89pt" viewBox="0 0 70 89" version="1.1">
<g id="surface1">
<path style=" stroke:none;fill-rule:nonzero;fill:rgb(0%,0%,0%);fill-opacity:1;" d="M 18.949219 0 C 18.496094 0.015625 18.011719 0.179688 17.457031 0.613281 C 16.105469 0.0976562 14.792969 -0.0859375 13.621094 0.972656 C 11.808594 0.738281 11.222656 1.222656 10.773438 1.785156 C 10.378906 1.777344 7.800781 1.378906 6.617188 3.132812 C 3.648438 2.78125 2.710938 4.871094 3.773438 6.820312 C 3.167969 7.753906 2.539062 8.675781 3.957031 10.457031 C 3.453125 11.449219 3.765625 12.527344 4.949219 13.832031 C 4.636719 15.226562 5.25 16.210938 6.347656 16.976562 C 6.144531 18.886719 8.109375 19.996094 8.695312 20.390625 C 8.921875 21.503906 9.390625 22.554688 11.632812 23.132812 C 12.003906 24.792969 13.351562 25.078125 14.660156 25.425781 C 10.34375 27.921875 6.640625 31.210938 6.664062 39.269531 L 6.03125 40.394531 C 1.082031 43.390625 -3.371094 53.019531 3.59375 60.84375 C 4.046875 63.296875 4.8125 65.054688 5.492188 67.003906 C 6.507812 74.851562 13.136719 78.523438 14.886719 78.960938 C 17.449219 80.902344 20.175781 82.746094 23.871094 84.035156 C 27.351562 87.609375 31.125 88.972656 34.917969 88.96875 C 34.972656 88.96875 42.648438 87.609375 46.128906 84.035156 C 49.824219 82.746094 52.550781 80.902344 55.113281 78.960938 C 56.863281 78.523438 63.492188 74.851562 64.507812 67.003906 C 65.1875 65.054688 65.953125 63.296875 66.40625 60.84375 C 73.371094 53.019531 68.917969 43.386719 63.96875 40.394531 L 63.332031 39.269531 C 63.359375 31.207031 59.65625 27.921875 55.339844 25.425781 C 56.644531 25.078125 57.996094 24.789062 58.363281 23.132812 C 60.609375 22.550781 61.078125 21.503906 61.304688 20.390625 C 61.890625 19.996094 63.855469 18.886719 63.648438 16.976562 C 64.75 16.207031 65.363281 15.222656 65.050781 13.828125 C 66.234375 12.527344 66.542969 11.449219 66.042969 10.457031 C 67.460938 8.675781 66.832031 7.753906 66.226562 6.820312 C 67.289062 4.871094 66.351562 2.78125 63.378906 3.132812 C 62.199219 1.378906 59.621094 1.777344 59.222656 1.785156 C 58.777344 1.222656 58.1875 0.738281 56.378906 0.972656 C 55.203125 -0.0859375 53.894531 0.09375 52.539062 0.613281 C 50.933594 -0.648438 49.871094 0.363281 48.65625 0.746094 C 46.714844 0.113281 46.269531 0.980469 45.3125 1.332031 C 43.191406 0.886719 42.546875 1.859375 41.53125 2.882812 L 40.347656 2.859375 C 37.148438 4.734375 35.558594 8.554688 34.996094 10.519531 C 34.433594 8.554688 32.847656 4.734375 29.648438 2.859375 L 28.46875 2.882812 C 27.449219 1.859375 26.804688 0.886719 24.683594 1.332031 C 23.730469 0.980469 23.285156 0.113281 21.339844 0.746094 C 20.542969 0.496094 19.808594 -0.0273438 18.949219 0 L -3.007812 38.371094 "/>
<path style=" stroke:none;fill-rule:nonzero;fill:rgb(45.882353%,66.27451%,15.686275%);fill-opacity:1;" d="M 12.582031 8.253906 C 21.066406 12.609375 26 16.132812 28.703125 19.132812 C 27.320312 24.652344 20.097656 24.90625 17.457031 24.75 C 18 24.5 18.449219 24.199219 18.609375 23.738281 C 17.945312 23.269531 15.597656 23.691406 13.957031 22.773438 C 14.589844 22.644531 14.882812 22.515625 15.175781 22.054688 C 13.628906 21.5625 11.957031 21.136719 10.976562 20.324219 C 11.507812 20.332031 12 20.441406 12.691406 19.964844 C 11.304688 19.21875 9.824219 18.628906 8.675781 17.492188 C 9.390625 17.476562 10.164062 17.484375 10.390625 17.222656 C 9.121094 16.4375 8.046875 15.566406 7.160156 14.617188 C 8.164062 14.734375 8.589844 14.632812 8.832031 14.457031 C 7.871094 13.480469 6.65625 12.652344 6.078125 11.445312 C 6.824219 11.703125 7.503906 11.800781 7.996094 11.425781 C 7.671875 10.691406 6.273438 10.257812 5.46875 8.546875 C 6.253906 8.625 7.085938 8.71875 7.25 8.546875 C 6.886719 7.070312 6.261719 6.238281 5.648438 5.378906 C 7.328125 5.355469 9.875 5.386719 9.757812 5.246094 L 8.71875 4.1875 C 10.359375 3.75 12.039062 4.257812 13.257812 4.636719 C 13.804688 4.207031 13.25 3.664062 12.582031 3.109375 C 13.976562 3.292969 15.234375 3.613281 16.375 4.054688 C 16.984375 3.507812 15.980469 2.960938 15.492188 2.414062 C 17.648438 2.820312 18.5625 3.390625 19.46875 3.964844 C 20.125 3.335938 19.507812 2.800781 19.0625 2.253906 C 20.6875 2.855469 21.523438 3.628906 22.402344 4.390625 C 22.703125 3.988281 23.164062 3.695312 22.605469 2.726562 C 23.761719 3.390625 24.628906 4.167969 25.273438 5.042969 C 25.984375 4.589844 25.695312 3.972656 25.699219 3.402344 C 26.898438 4.371094 27.660156 5.40625 28.589844 6.414062 C 28.777344 6.277344 28.941406 5.816406 29.089844 5.085938 C 31.949219 7.847656 35.988281 14.804688 30.125 17.558594 C 25.136719 13.464844 19.179688 10.488281 12.578125 8.257812 L 12.582031 8.253906 M 57.609375 8.253906 C 49.125 12.609375 44.191406 16.132812 41.488281 19.132812 C 42.871094 24.652344 50.09375 24.90625 52.734375 24.75 C 52.191406 24.5 51.742188 24.199219 51.582031 23.738281 C 52.242188 23.269531 54.59375 23.691406 56.234375 22.773438 C 55.601562 22.644531 55.308594 22.515625 55.015625 22.054688 C 56.5625 21.5625 58.230469 21.136719 59.214844 20.324219 C 58.683594 20.332031 58.1875 20.441406 57.496094 19.964844 C 58.886719 19.21875 60.367188 18.628906 61.515625 17.492188 C 60.800781 17.476562 60.027344 17.484375 59.800781 17.222656 C 61.070312 16.4375 62.144531 15.566406 63.03125 14.617188 C 62.027344 14.734375 61.601562 14.632812 61.359375 14.457031 C 62.320312 13.480469 63.535156 12.652344 64.113281 11.445312 C 63.367188 11.703125 62.6875 11.800781 62.195312 11.425781 C 62.519531 10.691406 63.917969 10.257812 64.722656 8.546875 C 63.9375 8.625 63.105469 8.71875 62.941406 8.546875 C 63.304688 7.070312 63.929688 6.238281 64.542969 5.378906 C 62.863281 5.355469 60.316406 5.386719 60.433594 5.242188 L 61.472656 4.1875 C 59.832031 3.746094 58.152344 4.257812 56.933594 4.636719 C 56.386719 4.207031 56.941406 3.664062 57.609375 3.109375 C 56.214844 3.292969 54.957031 3.613281 53.816406 4.054688 C 53.207031 3.507812 54.210938 2.960938 54.699219 2.414062 C 52.542969 2.820312 51.628906 3.390625 50.722656 3.964844 C 50.066406 3.335938 50.6875 2.800781 51.128906 2.253906 C 49.503906 2.855469 48.667969 3.625 47.789062 4.390625 C 47.488281 3.988281 47.027344 3.695312 47.585938 2.726562 C 46.429688 3.386719 45.5625 4.167969 44.921875 5.042969 C 44.207031 4.589844 44.496094 3.972656 44.492188 3.402344 C 43.292969 4.371094 42.53125 5.402344 41.601562 6.414062 C 41.414062 6.277344 41.25 5.816406 41.105469 5.085938 C 38.246094 7.847656 34.203125 14.800781 40.066406 17.558594 C 45.050781 13.464844 51.007812 10.488281 57.609375 8.253906 "/>
<path style=" stroke:none;fill-rule:nonzero;fill:rgb(73.72549%,6.666667%,25.882353%);fill-opacity:1;" d="M 45.371094 64.480469 C 45.402344 69.632812 40.875 73.832031 35.261719 73.859375 C 29.644531 73.886719 25.070312 69.730469 25.042969 64.578125 C 25.042969 64.546875 25.042969 64.511719 25.042969 64.480469 C 25.011719 59.328125 29.539062 55.128906 35.152344 55.101562 C 40.769531 55.074219 45.34375 59.230469 45.371094 64.382812 L 45.371094 64.480469 M 29.324219 37.828125 C 33.539062 40.574219 34.296875 46.800781 31.019531 51.734375 C 27.746094 56.667969 21.675781 58.441406 17.464844 55.695312 C 13.25 52.945312 12.492188 46.722656 15.769531 41.789062 C 19.042969 36.855469 25.113281 35.082031 29.324219 37.828125 M 40.695312 37.332031 C 36.480469 40.078125 35.722656 46.304688 38.996094 51.238281 C 42.273438 56.171875 48.34375 57.941406 52.554688 55.195312 C 56.765625 52.449219 57.527344 46.222656 54.25 41.292969 C 50.976562 36.359375 44.90625 34.585938 40.695312 37.332031 M 8.273438 42.320312 C 12.820312 41.105469 9.808594 61.042969 6.109375 59.410156 C 2.039062 56.148438 0.726562 46.609375 8.273438 42.320312 M 60.828125 42.070312 C 56.277344 40.859375 59.292969 60.796875 62.992188 59.160156 C 67.0625 55.902344 68.371094 46.359375 60.828125 42.070312 M 45.375 27.222656 C 53.222656 25.90625 59.753906 30.546875 59.492188 39.015625 C 59.230469 42.261719 42.484375 27.707031 45.375 27.222656 M 23.691406 26.976562 C 15.84375 25.65625 9.3125 30.296875 9.578125 38.765625 C 9.835938 42.015625 26.582031 27.457031 23.691406 26.976562 M 34.964844 25 C 30.28125 24.878906 25.785156 28.460938 25.773438 30.539062 C 25.761719 33.0625 29.480469 35.644531 34.996094 35.710938 C 40.632812 35.75 44.230469 33.640625 44.246094 31.039062 C 44.269531 28.085938 39.121094 24.953125 34.964844 25 M 35.25 76.757812 C 39.335938 76.578125 44.816406 78.066406 44.824219 80.039062 C 44.894531 81.953125 39.855469 86.28125 34.980469 86.195312 C 29.929688 86.414062 24.980469 82.078125 25.046875 80.578125 C 24.96875 78.375 31.191406 76.65625 35.25 76.757812 M 20.167969 65.070312 C 23.074219 68.554688 24.402344 74.679688 21.972656 76.484375 C 19.679688 77.863281 14.105469 77.296875 10.140625 71.632812 C 7.46875 66.878906 7.8125 62.039062 9.691406 60.621094 C 12.496094 58.917969 16.832031 61.214844 20.167969 65.070312 M 49.753906 63.964844 C 46.609375 67.632812 44.855469 74.320312 47.152344 76.472656 C 49.34375 78.148438 55.234375 77.914062 59.585938 71.90625 C 62.746094 67.871094 61.6875 61.128906 59.882812 59.339844 C 57.203125 57.277344 53.351562 59.917969 49.753906 63.964844 "/>
</g>
</svg>
