<svg id="svg" version="1.1" xmlns="http://www.w3.org/2000/svg" xmlns:xlink="http://www.w3.org/1999/xlink" width="400" height="400" viewBox="0, 0, 400,400"><g id="svgg"><path id="path0" d="M83.600 117.508 C 78.346 118.159,68.832 121.625,67.757 123.280 C 67.679 123.401,67.544 123.500,67.457 123.501 C 67.295 123.501,66.930 123.758,64.454 125.608 C 61.996 127.446,58.746 130.986,56.285 134.506 C 55.644 135.422,53.160 140.000,53.304 140.000 C 53.353 140.000,53.208 140.357,52.980 140.793 C 52.753 141.230,52.542 141.702,52.513 141.843 C 52.483 141.984,52.307 142.444,52.121 142.864 C 50.567 146.378,49.472 156.257,50.200 160.205 C 50.290 160.697,50.423 161.595,50.493 162.200 C 50.564 162.805,50.704 163.570,50.804 163.900 C 50.904 164.230,51.029 164.753,51.082 165.062 C 51.416 167.014,53.163 171.380,54.779 174.300 C 55.266 175.180,55.771 176.101,55.902 176.347 C 56.032 176.593,56.198 176.735,56.270 176.664 C 56.341 176.592,56.401 176.661,56.402 176.817 C 56.404 177.120,57.759 179.121,58.627 180.103 C 58.917 180.431,59.593 181.207,60.129 181.826 C 60.963 182.790,62.667 184.417,63.558 185.100 C 63.702 185.210,63.972 185.441,64.160 185.614 C 64.717 186.130,66.960 187.800,67.093 187.800 C 67.161 187.800,67.776 188.165,68.459 188.612 C 69.774 189.472,74.054 191.600,74.469 191.600 C 74.605 191.600,75.068 191.780,75.500 192.000 C 75.932 192.220,76.423 192.401,76.592 192.403 C 76.762 192.404,77.444 192.576,78.108 192.784 C 78.772 192.992,79.627 193.223,80.008 193.296 C 81.923 193.666,82.513 193.748,82.650 193.666 C 82.733 193.617,82.800 193.661,82.800 193.765 C 82.800 193.869,83.228 194.025,83.750 194.110 C 84.273 194.195,84.790 194.290,84.900 194.321 C 85.010 194.352,85.303 194.427,85.550 194.488 C 87.274 194.916,87.445 194.961,88.150 195.175 C 88.508 195.283,88.800 195.334,88.800 195.288 C 88.800 195.241,89.138 195.327,89.550 195.478 C 89.963 195.629,90.705 195.868,91.200 196.009 C 91.695 196.151,92.773 196.486,93.596 196.754 C 94.418 197.021,95.228 197.267,95.396 197.299 C 95.563 197.332,96.015 197.496,96.400 197.663 C 96.785 197.831,97.730 198.211,98.500 198.507 C 99.270 198.803,100.367 199.260,100.937 199.522 C 101.508 199.785,102.055 200.000,102.152 200.000 C 102.362 200.000,107.788 202.758,108.800 203.379 C 109.185 203.615,109.748 203.916,110.050 204.048 C 110.353 204.180,110.600 204.358,110.600 204.444 C 110.600 204.530,110.713 204.600,110.850 204.600 C 110.988 204.601,111.630 204.961,112.277 205.400 C 112.924 205.840,113.532 206.200,113.627 206.200 C 113.722 206.200,113.958 206.342,114.150 206.515 C 114.981 207.262,115.715 207.800,115.902 207.800 C 116.013 207.800,116.351 208.029,116.652 208.308 C 116.953 208.588,117.200 208.747,117.200 208.662 C 117.200 208.578,117.403 208.708,117.650 208.952 C 117.897 209.196,119.000 210.124,120.100 211.016 C 123.308 213.615,128.840 218.840,130.302 220.650 C 131.090 221.626,132.761 223.556,133.050 223.823 C 133.243 224.001,133.402 224.226,133.404 224.323 C 133.406 224.421,133.726 224.860,134.115 225.300 C 134.504 225.740,134.972 226.347,135.154 226.650 C 135.337 226.953,135.557 227.200,135.643 227.200 C 135.729 227.200,135.800 227.298,135.800 227.419 C 135.800 227.539,136.205 228.170,136.700 228.821 C 137.195 229.472,137.601 230.071,137.602 230.152 C 137.603 230.234,137.962 230.750,138.400 231.300 C 138.838 231.850,139.197 232.367,139.198 232.450 C 139.199 232.532,139.503 233.027,139.874 233.550 C 140.245 234.072,140.844 235.040,141.205 235.700 C 141.567 236.360,142.091 237.260,142.370 237.700 C 143.734 239.850,147.817 248.049,149.492 252.000 C 149.795 252.715,150.249 253.750,150.502 254.300 C 151.025 255.441,152.400 258.929,152.400 259.115 C 152.400 259.184,152.544 259.568,152.720 259.970 C 153.253 261.183,153.350 261.434,153.972 263.200 C 155.396 267.245,156.205 269.611,156.710 271.200 C 157.007 272.135,157.472 273.573,157.745 274.396 C 158.018 275.218,158.270 276.042,158.305 276.226 C 158.340 276.409,158.507 276.996,158.676 277.530 C 159.419 279.880,160.231 282.731,161.004 285.700 C 161.463 287.460,161.980 289.395,162.154 290.000 C 162.328 290.605,162.486 291.235,162.505 291.400 C 162.588 292.105,163.273 294.545,163.530 295.050 C 163.684 295.353,163.764 295.600,163.708 295.600 C 163.651 295.600,163.816 296.072,164.074 296.650 C 164.331 297.228,164.743 298.150,164.987 298.700 C 165.651 300.190,166.149 301.111,166.581 301.650 C 166.736 301.843,166.781 302.001,166.681 302.003 C 166.581 302.005,166.596 302.072,166.713 302.153 C 166.830 302.234,167.220 302.817,167.578 303.450 C 167.936 304.082,168.313 304.600,168.415 304.600 C 168.517 304.600,168.600 304.738,168.600 304.906 C 168.600 305.075,168.735 305.264,168.900 305.328 C 169.065 305.391,169.202 305.546,169.204 305.671 C 169.211 306.145,173.772 311.009,175.656 312.552 C 176.413 313.173,178.752 314.800,178.886 314.800 C 178.946 314.800,179.173 314.952,179.391 315.139 C 179.988 315.650,184.072 317.779,184.247 317.671 C 184.331 317.619,184.400 317.666,184.400 317.775 C 184.400 317.884,184.603 318.034,184.850 318.109 C 185.097 318.183,185.570 318.365,185.900 318.512 C 188.160 319.519,192.895 320.681,195.800 320.941 C 197.729 321.114,202.271 321.114,204.200 320.941 C 207.105 320.681,211.840 319.519,214.100 318.512 C 214.430 318.365,214.903 318.183,215.150 318.109 C 215.398 318.034,215.600 317.884,215.600 317.775 C 215.600 317.666,215.669 317.619,215.753 317.671 C 215.928 317.779,220.012 315.650,220.609 315.139 C 220.827 314.952,221.054 314.800,221.114 314.800 C 221.246 314.800,223.571 313.184,224.346 312.554 C 226.004 311.206,230.800 306.093,230.800 305.674 C 230.800 305.547,230.935 305.391,231.100 305.328 C 231.265 305.264,231.400 305.075,231.400 304.906 C 231.400 304.738,231.483 304.600,231.585 304.600 C 231.687 304.600,232.064 304.082,232.422 303.450 C 232.780 302.817,233.170 302.234,233.287 302.153 C 233.404 302.072,233.419 302.005,233.319 302.003 C 233.219 302.001,233.264 301.842,233.419 301.650 C 233.833 301.135,234.378 300.126,235.013 298.700 C 235.257 298.150,235.669 297.228,235.926 296.650 C 236.184 296.072,236.349 295.600,236.292 295.600 C 236.236 295.600,236.316 295.353,236.470 295.050 C 236.720 294.558,237.395 292.170,237.501 291.400 C 237.563 290.951,237.810 289.965,238.003 289.400 C 238.097 289.125,238.546 287.460,239.001 285.700 C 239.457 283.940,240.099 281.600,240.428 280.500 C 240.758 279.400,241.255 277.735,241.533 276.800 C 241.811 275.865,242.201 274.605,242.400 274.000 C 242.598 273.395,243.002 272.135,243.296 271.200 C 243.793 269.618,244.570 267.343,246.028 263.200 C 246.650 261.434,246.747 261.183,247.280 259.970 C 247.456 259.568,247.600 259.184,247.600 259.115 C 247.600 258.929,248.975 255.441,249.498 254.300 C 249.751 253.750,250.205 252.715,250.508 252.000 C 251.139 250.511,252.282 248.022,253.401 245.700 C 253.825 244.820,254.224 243.965,254.289 243.800 C 254.353 243.635,254.641 243.095,254.928 242.600 C 255.216 242.105,255.703 241.196,256.010 240.579 C 256.317 239.962,256.921 238.882,257.351 238.179 C 257.781 237.476,258.430 236.360,258.793 235.700 C 259.155 235.040,259.755 234.072,260.126 233.550 C 260.497 233.027,260.800 232.540,260.800 232.468 C 260.800 232.396,261.138 231.879,261.550 231.318 C 261.963 230.758,262.391 230.153,262.500 229.974 C 263.004 229.151,265.424 225.828,265.977 225.200 C 266.316 224.815,266.595 224.428,266.597 224.341 C 266.599 224.253,266.803 223.972,267.050 223.717 C 267.298 223.461,268.040 222.614,268.700 221.835 C 271.539 218.483,275.985 214.188,279.900 211.016 C 281.000 210.124,282.103 209.196,282.350 208.952 C 282.598 208.708,282.800 208.578,282.800 208.662 C 282.800 208.747,283.047 208.588,283.348 208.308 C 283.649 208.029,283.987 207.800,284.098 207.800 C 284.285 207.800,285.019 207.262,285.850 206.515 C 286.043 206.342,286.278 206.200,286.373 206.200 C 286.468 206.200,287.076 205.840,287.723 205.400 C 288.370 204.961,289.012 204.601,289.150 204.600 C 289.288 204.600,289.400 204.530,289.400 204.444 C 289.400 204.358,289.647 204.180,289.950 204.048 C 290.252 203.916,290.815 203.615,291.200 203.379 C 292.212 202.758,297.638 200.000,297.848 200.000 C 297.945 200.000,298.492 199.785,299.063 199.522 C 299.633 199.260,300.730 198.803,301.500 198.507 C 302.270 198.211,303.215 197.831,303.600 197.663 C 303.985 197.496,304.437 197.332,304.604 197.299 C 304.772 197.267,305.582 197.021,306.404 196.754 C 307.227 196.486,308.305 196.151,308.800 196.009 C 309.295 195.868,310.038 195.629,310.450 195.478 C 310.863 195.327,311.200 195.241,311.200 195.288 C 311.200 195.334,311.493 195.283,311.850 195.175 C 312.555 194.961,312.726 194.916,314.450 194.488 C 314.697 194.427,314.990 194.352,315.100 194.321 C 315.210 194.290,315.728 194.195,316.250 194.110 C 316.773 194.025,317.200 193.869,317.200 193.765 C 317.200 193.661,317.268 193.617,317.350 193.666 C 317.782 193.925,324.376 192.304,324.860 191.820 C 324.981 191.699,325.237 191.600,325.428 191.600 C 325.926 191.600,330.071 189.574,331.541 188.612 C 332.224 188.165,332.831 187.800,332.889 187.800 C 333.012 187.800,335.332 186.080,335.840 185.613 C 336.028 185.441,336.298 185.210,336.442 185.100 C 337.333 184.417,339.037 182.790,339.871 181.826 C 340.407 181.207,341.083 180.431,341.373 180.103 C 342.241 179.121,343.596 177.120,343.598 176.817 C 343.599 176.661,343.659 176.592,343.730 176.664 C 343.802 176.735,343.968 176.593,344.098 176.347 C 344.229 176.101,344.734 175.180,345.221 174.300 C 346.837 171.380,348.584 167.014,348.918 165.062 C 348.971 164.753,349.096 164.230,349.196 163.900 C 349.296 163.570,349.436 162.805,349.507 162.200 C 349.577 161.595,349.710 160.697,349.800 160.205 C 350.528 156.257,349.433 146.378,347.879 142.864 C 347.693 142.444,347.518 141.991,347.490 141.859 C 347.461 141.726,347.294 141.330,347.119 140.978 C 346.944 140.626,346.800 140.280,346.800 140.209 C 346.800 139.993,344.417 135.559,343.840 134.700 C 341.658 131.455,338.000 127.451,335.500 125.574 C 333.299 123.920,332.701 123.501,332.543 123.501 C 332.456 123.500,332.321 123.401,332.243 123.280 C 331.089 121.504,321.058 117.971,315.600 117.419 C 305.950 116.444,293.896 119.808,288.300 125.037 C 287.970 125.346,287.639 125.599,287.565 125.599 C 287.254 125.601,282.000 130.702,282.000 131.002 C 282.000 131.074,281.640 131.523,281.200 132.000 C 280.760 132.477,280.400 132.935,280.400 133.019 C 280.400 133.103,280.287 133.290,280.150 133.436 C 279.843 133.759,278.834 135.284,278.387 136.100 C 277.459 137.795,275.991 140.608,275.990 140.695 C 275.989 140.750,275.822 141.182,275.619 141.655 C 275.416 142.129,275.184 142.827,275.102 143.208 C 275.021 143.589,274.887 143.990,274.804 144.100 C 274.722 144.210,274.414 145.335,274.119 146.600 C 273.410 149.644,273.437 149.497,273.303 151.100 C 273.239 151.870,273.050 153.310,272.884 154.300 C 272.377 157.320,271.992 159.455,271.784 160.400 C 271.676 160.895,271.547 161.615,271.499 162.000 C 271.359 163.121,270.694 166.052,269.797 169.500 C 269.339 171.260,268.936 172.835,268.900 173.000 C 268.322 175.694,264.884 185.483,263.332 188.856 C 263.039 189.492,262.800 190.137,262.800 190.289 C 262.800 190.442,262.733 190.597,262.650 190.633 C 262.568 190.670,261.843 192.025,261.040 193.644 C 260.238 195.263,259.502 196.637,259.406 196.696 C 259.310 196.756,259.172 197.074,259.099 197.402 C 259.027 197.731,258.901 198.000,258.818 198.000 C 258.735 198.000,258.540 198.248,258.384 198.550 C 258.132 199.039,257.747 199.660,256.946 200.873 C 256.811 201.078,256.543 201.453,256.350 201.705 C 256.157 201.957,256.000 202.223,256.000 202.296 C 256.000 202.369,255.528 203.042,254.950 203.791 C 254.373 204.539,253.720 205.405,253.500 205.713 C 253.026 206.378,252.246 207.342,251.731 207.900 C 251.528 208.120,250.969 208.795,250.489 209.400 C 250.009 210.005,248.695 211.355,247.569 212.400 C 246.443 213.445,245.136 214.676,244.664 215.135 C 244.192 215.595,243.405 216.259,242.915 216.611 C 242.424 216.963,241.976 217.375,241.918 217.526 C 241.860 217.677,241.675 217.800,241.506 217.800 C 241.338 217.800,241.200 217.884,241.200 217.986 C 241.200 218.088,240.750 218.463,240.200 218.819 C 239.650 219.176,239.200 219.542,239.200 219.634 C 239.200 219.725,239.098 219.800,238.973 219.800 C 238.849 219.800,238.534 220.048,238.274 220.350 C 238.013 220.653,237.800 220.825,237.800 220.733 C 237.800 220.641,237.463 220.829,237.050 221.151 C 236.638 221.472,236.007 221.904,235.650 222.110 C 235.293 222.317,235.000 222.557,235.000 222.643 C 235.000 222.729,234.882 222.800,234.738 222.800 C 234.593 222.800,234.282 222.980,234.046 223.200 C 233.810 223.420,233.523 223.600,233.408 223.600 C 233.294 223.600,233.200 223.690,233.200 223.800 C 233.200 223.910,233.104 224.000,232.986 224.000 C 232.868 224.000,232.204 224.405,231.510 224.900 C 230.817 225.395,230.189 225.800,230.117 225.800 C 230.044 225.800,229.695 225.997,229.342 226.237 C 227.838 227.260,227.605 227.400,227.399 227.400 C 227.279 227.400,226.509 227.715,225.686 228.100 C 224.864 228.485,224.103 228.800,223.996 228.800 C 223.888 228.800,223.800 228.890,223.800 229.000 C 223.800 229.110,223.664 229.200,223.497 229.200 C 223.331 229.200,223.016 229.290,222.797 229.400 C 222.579 229.510,222.221 229.690,222.003 229.800 C 221.784 229.910,221.520 230.000,221.416 230.000 C 221.311 230.000,221.018 230.079,220.763 230.176 C 220.508 230.273,220.233 230.364,220.151 230.379 C 220.069 230.394,219.394 230.633,218.651 230.911 C 217.908 231.188,217.165 231.450,217.000 231.493 C 216.835 231.535,216.115 231.715,215.400 231.892 C 214.685 232.070,213.965 232.250,213.800 232.293 C 212.318 232.675,210.575 233.061,210.000 233.134 C 209.615 233.182,208.805 233.310,208.200 233.418 C 204.513 234.074,195.487 234.074,191.800 233.418 C 191.195 233.310,190.385 233.182,190.000 233.134 C 189.425 233.061,187.682 232.675,186.200 232.293 C 186.035 232.250,185.315 232.070,184.600 231.892 C 183.885 231.715,183.165 231.535,183.000 231.493 C 182.835 231.450,182.092 231.188,181.349 230.911 C 180.606 230.633,179.976 230.411,179.949 230.417 C 179.922 230.423,179.647 230.332,179.337 230.214 C 179.027 230.096,178.689 230.000,178.584 230.000 C 178.398 230.000,178.140 229.890,177.253 229.431 C 177.007 229.304,176.669 229.200,176.503 229.200 C 176.336 229.200,176.200 229.110,176.200 229.000 C 176.200 228.890,176.112 228.800,176.004 228.800 C 175.897 228.800,175.136 228.485,174.314 228.100 C 173.491 227.715,172.721 227.400,172.601 227.400 C 172.395 227.400,172.162 227.260,170.658 226.237 C 170.305 225.997,169.956 225.800,169.883 225.800 C 169.811 225.800,169.183 225.395,168.490 224.900 C 167.796 224.405,167.132 224.000,167.014 224.000 C 166.896 224.000,166.800 223.910,166.800 223.800 C 166.800 223.690,166.706 223.600,166.592 223.600 C 166.477 223.600,166.190 223.420,165.954 223.200 C 165.718 222.980,165.407 222.800,165.262 222.800 C 165.118 222.800,165.000 222.729,165.000 222.643 C 165.000 222.557,164.708 222.317,164.350 222.110 C 163.993 221.904,163.363 221.472,162.950 221.151 C 162.538 220.829,162.200 220.641,162.200 220.733 C 162.200 220.825,161.987 220.653,161.726 220.350 C 161.466 220.048,161.151 219.800,161.027 219.800 C 160.902 219.800,160.800 219.725,160.800 219.634 C 160.800 219.542,160.350 219.176,159.800 218.819 C 159.250 218.463,158.800 218.088,158.800 217.986 C 158.800 217.884,158.662 217.800,158.494 217.800 C 158.325 217.800,158.140 217.677,158.082 217.526 C 158.024 217.375,157.576 216.963,157.085 216.611 C 156.595 216.259,155.808 215.595,155.336 215.135 C 154.864 214.676,153.557 213.445,152.431 212.400 C 151.305 211.355,149.991 210.005,149.511 209.400 C 149.031 208.795,148.472 208.120,148.269 207.900 C 147.754 207.342,146.974 206.378,146.500 205.713 C 146.280 205.405,145.628 204.539,145.050 203.791 C 144.472 203.042,144.000 202.381,144.000 202.322 C 144.000 202.264,143.528 201.514,142.950 200.658 C 142.373 199.801,141.772 198.853,141.616 198.550 C 141.460 198.248,141.265 198.000,141.182 198.000 C 141.099 198.000,140.973 197.731,140.901 197.402 C 140.828 197.074,140.690 196.756,140.594 196.696 C 140.498 196.637,139.762 195.263,138.960 193.644 C 138.157 192.025,137.433 190.670,137.350 190.633 C 137.268 190.597,137.200 190.442,137.200 190.289 C 137.200 190.137,136.961 189.492,136.668 188.856 C 135.116 185.483,131.678 175.694,131.100 173.000 C 131.064 172.835,130.660 171.260,130.202 169.500 C 129.347 166.215,128.643 163.161,128.496 162.100 C 128.451 161.770,128.362 161.275,128.300 161.000 C 128.192 160.527,128.051 159.755,127.605 157.200 C 127.055 154.045,126.805 152.374,126.705 151.200 C 126.533 149.159,125.638 144.929,125.224 144.193 C 125.129 144.025,124.983 143.578,124.900 143.201 C 124.818 142.824,124.584 142.129,124.381 141.655 C 124.178 141.182,124.011 140.750,124.010 140.695 C 124.009 140.608,122.541 137.795,121.613 136.100 C 121.166 135.284,120.157 133.759,119.850 133.436 C 119.713 133.290,119.600 133.103,119.600 133.019 C 119.600 132.935,119.240 132.477,118.800 132.000 C 118.360 131.523,118.000 131.074,118.000 131.002 C 118.000 130.702,112.746 125.601,112.435 125.599 C 112.361 125.599,112.030 125.347,111.700 125.040 C 110.962 124.353,108.936 123.000,108.646 123.000 C 108.529 123.000,108.403 122.920,108.367 122.822 C 108.292 122.623,104.889 120.823,103.800 120.406 C 103.415 120.258,102.650 119.939,102.100 119.696 C 101.104 119.256,98.404 118.447,96.500 118.017 C 93.100 117.250,87.472 117.028,83.600 117.508 " stroke="none" fill="#4cc48c" fill-rule="evenodd"></path><path id="path1" d="M194.900 79.025 C 193.503 79.215,190.126 79.948,189.400 80.219 C 189.125 80.321,188.720 80.441,188.500 80.484 C 187.677 80.646,185.306 81.593,182.800 82.761 C 181.727 83.261,178.014 85.560,176.965 86.374 C 176.451 86.773,175.732 87.325,175.367 87.600 C 174.470 88.277,170.892 91.898,170.245 92.785 C 169.958 93.178,169.625 93.590,169.507 93.700 C 168.883 94.277,166.800 97.593,165.614 99.900 C 161.405 108.084,160.275 119.611,162.891 127.700 C 163.033 128.140,163.258 128.860,163.390 129.300 C 163.736 130.451,165.208 133.961,165.737 134.900 C 165.986 135.340,166.416 136.124,166.693 136.642 C 166.971 137.160,167.446 137.934,167.749 138.362 C 168.052 138.790,168.611 139.581,168.990 140.120 C 169.370 140.659,169.775 141.199,169.890 141.319 C 170.006 141.440,170.640 142.153,171.300 142.903 C 173.252 145.124,174.673 146.451,176.700 147.948 C 177.470 148.517,178.209 149.076,178.342 149.191 C 178.474 149.306,178.630 149.400,178.688 149.400 C 178.745 149.400,179.311 149.733,179.946 150.140 C 182.758 151.942,184.822 152.843,189.700 154.398 C 190.818 154.754,194.292 155.415,195.800 155.558 C 200.512 156.004,206.851 155.497,210.300 154.398 C 215.178 152.843,217.242 151.942,220.054 150.140 C 220.689 149.733,221.255 149.400,221.312 149.400 C 221.370 149.400,221.526 149.306,221.658 149.191 C 221.791 149.076,222.530 148.517,223.300 147.948 C 225.327 146.451,226.748 145.124,228.700 142.903 C 229.360 142.153,229.994 141.440,230.110 141.319 C 230.225 141.199,230.630 140.659,231.010 140.120 C 231.389 139.581,231.948 138.790,232.251 138.362 C 232.554 137.934,233.029 137.160,233.307 136.642 C 233.584 136.124,234.014 135.340,234.263 134.900 C 234.792 133.961,236.264 130.451,236.610 129.300 C 236.742 128.860,236.967 128.140,237.109 127.700 C 240.534 117.109,237.621 102.452,230.300 93.434 C 228.810 91.599,225.756 88.470,224.558 87.551 C 224.234 87.303,223.549 86.773,223.035 86.374 C 221.986 85.560,218.273 83.261,217.200 82.761 C 214.694 81.593,212.323 80.646,211.500 80.484 C 211.280 80.441,210.875 80.321,210.600 80.219 C 207.472 79.053,199.267 78.429,194.900 79.025 " stroke="none" fill="#344c5c" fill-rule="evenodd"></path><path id="path2" d="" stroke="none" fill="#344c64" fill-rule="evenodd"></path><path id="path3" d="" stroke="none" fill="#54bc8c" fill-rule="evenodd"></path><path id="path4" d="" stroke="none" fill="#4cc494" fill-rule="evenodd"></path></g></svg>